<?xml version="1.0" standalone="no"?>
<svg version="1.0" xmlns="http://www.w3.org/2000/svg"
 width="512.000000pt" height="512.000000pt" viewBox="0 0 512.000000 512.000000"
 preserveAspectRatio="xMidYMid meet">
<g transform="translate(0.000000,512.000000) scale(0.100000,-0.100000)"
fill="#005BAA" stroke="none">
<path d="M4074 4549 c-650 -429 -1493 -1238 -2185 -2099 -69 -85 -128 -156
-133 -158 -4 -2 -222 146 -484 330 -262 183 -494 341 -514 351 -62 31 -84 17
-276 -176 -158 -159 -172 -176 -172 -209 0 -41 -13 -21 242 -373 431 -597 920
-1309 1071 -1562 37 -62 79 -121 94 -133 35 -28 95 -27 126 3 13 12 77 112
142 222 428 725 1016 1606 1493 2235 402 529 748 928 1117 1287 l210 205 0 50
c0 42 -4 53 -28 74 l-28 24 -284 0 -283 0 -108 -71z"/>
</g>
</svg>
