<svg width="0" height="0" class="hidden">
  <symbol xmlns="http://www.w3.org/2000/svg" viewBox="0 0 30 30" id="icon-btn">
    <path fill-rule="evenodd" clip-rule="evenodd" d="M 15 4 C 10.814 4 5.3808594 5.0488281 5.3808594 5.0488281 L 5.3671875 5.0644531 C 3.4606632 5.3693645 2 7.0076245 2 9 L 2 15 L 2 15.001953 L 2 21 L 2 21.001953 A 4 4 0 0 0 5.3769531 24.945312 L 5.3808594 24.951172 C 5.3808594 24.951172 10.814 26.001953 15 26.001953 C 19.186 26.001953 24.619141 24.951172 24.619141 24.951172 L 24.621094 24.949219 A 4 4 0 0 0 28 21.001953 L 28 21 L 28 15.001953 L 28 15 L 28 9 A 4 4 0 0 0 24.623047 5.0546875 L 24.619141 5.0488281 C 24.619141 5.0488281 19.186 4 15 4 z M 12 10.398438 L 20 15 L 12 19.601562 L 12 10.398438 z"></path>
  </symbol>

  <symbol xmlns="http://www.w3.org/2000/svg" preserveAspectRatio="xMidYMid meet" viewBox="0 0 512.000000 512.000000" id="icon-vk">
    <g transform="translate(0.000000,512.000000) scale(0.100000,-0.100000)" stroke="none">
      <path d="M1845 5109 c-425 -20 -967 -70 -1070 -97 -329 -89 -587 -349 -669
-675 -29 -117 -74 -621 -96 -1092 -13 -270 -13 -1099 0 -1370 22 -477 66 -972
95 -1088 82 -324 328 -578 649 -672 127 -36 589 -80 1116 -105 277 -13 1104
-13 1375 0 545 26 993 68 1120 105 276 80 504 285 608 546 45 112 57 175 82
439 53 555 60 717 60 1460 0 743 -7 904 -60 1460 -33 340 -61 442 -169 603
-128 192 -330 336 -549 391 -116 29 -623 74 -1087 96 -243 11 -1162 11 -1405
-1z m811 -1645 c62 -6 107 -33 131 -76 16 -30 18 -60 15 -335 -4 -391 7 -453
81 -453 24 0 41 12 86 61 136 148 254 337 346 554 31 72 67 141 81 155 l24 25
319 0 c345 0 362 -2 379 -54 6 -17 4 -42 -6 -76 -30 -104 -77 -179 -320 -509
-195 -266 -205 -286 -178 -349 7 -19 81 -101 163 -183 156 -157 227 -237 292
-332 78 -115 73 -185 -16 -224 -45 -20 -63 -21 -298 -19 -268 1 -321 9 -394
55 -20 13 -108 98 -196 188 -169 175 -205 199 -258 179 -14 -6 -33 -21 -42
-34 -16 -24 -48 -160 -60 -254 -15 -112 -52 -127 -289 -120 -143 4 -186 9
-265 31 -171 48 -307 123 -466 257 -235 197 -530 658 -794 1236 -54 118 -62
164 -34 195 15 17 37 18 272 18 141 0 272 -5 292 -10 51 -14 83 -54 128 -157
113 -261 300 -558 390 -619 110 -75 145 18 139 376 -3 189 -6 230 -21 257 -21
40 -60 70 -108 85 -53 15 -64 31 -45 60 28 43 92 70 180 78 81 8 376 4 472 -6z"></path>
    </g>
  </symbol>

   <symbol xmlns="http://www.w3.org/2000/svg" preserveAspectRatio="xMidYMid meet" viewBox="0 0 512.000000 512.000000" id="icon-inst">
    <g transform="translate(0.000000,512.000000) scale(0.100000,-0.100000)" stroke="none">
      <path d="M571 5100 c-147 -39 -256 -104 -366 -222 -83 -88 -136 -174 -173
-283 l-27 -80 0 -1955 0 -1955 27 -80 c41 -120 92 -199 193 -300 101 -101 180
-152 300 -193 l80 -27 1955 0 1955 0 80 27 c120 41 199 92 300 193 101 101
152 180 193 300 l27 80 0 1955 0 1955 -27 80 c-41 120 -92 199 -193 300 -101
101 -180 152 -300 193 l-80 27 -1935 2 c-1887 2 -1937 2 -2009 -17z m3372
-617 c212 -60 385 -202 482 -395 85 -170 80 -74 80 -1533 0 -1446 5 -1342 -74
-1509 -72 -154 -193 -277 -346 -351 -175 -86 -64 -80 -1525 -80 -1461 0 -1350
-6 -1525 80 -152 74 -266 187 -340 340 -86 175 -80 64 -80 1525 0 1461 -6
1350 80 1525 113 231 334 387 589 415 39 4 636 7 1326 6 l1255 -1 78 -22z"></path>
      <path d="M1211 4190 c-119 -43 -207 -123 -264 -239 l-32 -66 0 -1325 0 -1325
32 -66 c58 -119 148 -198 269 -239 58 -20 84 -20 1364 -18 l1305 3 70 34 c92
45 171 124 216 216 l34 70 0 1325 0 1325 -34 70 c-45 92 -124 171 -216 216
l-70 34 -1310 2 c-1273 2 -1312 2 -1364 -17z m2503 -306 c55 -19 132 -90 161
-149 15 -30 20 -61 20 -125 0 -99 -17 -142 -80 -205 -63 -63 -106 -80 -205
-80 -99 0 -142 17 -205 80 -63 63 -80 106 -80 205 0 93 19 145 73 203 74 79
206 108 316 71z m-1039 -288 c202 -16 427 -120 599 -277 128 -117 249 -320
298 -499 20 -73 23 -109 23 -260 0 -204 -16 -281 -91 -439 -106 -224 -276
-395 -499 -502 -459 -219 -1000 -75 -1300 346 -60 83 -128 230 -157 335 -20
74 -23 108 -23 260 0 203 16 280 89 436 59 124 115 204 210 300 177 176 404
283 644 303 48 4 98 6 112 5 14 -2 57 -5 95 -8z"></path>
      <path d="M2371 3290 c-41 -10 -113 -37 -160 -61 -70 -35 -104 -61 -182 -139
-82 -82 -102 -108 -141 -190 -67 -137 -81 -209 -76 -372 6 -149 26 -223 94
-347 57 -102 197 -236 304 -289 117 -58 218 -82 350 -82 132 0 232 23 350 82
69 34 103 60 180 138 78 77 104 111 138 180 59 119 82 218 82 354 0 136 -22
226 -82 346 -34 69 -61 103 -138 180 -77 78 -111 104 -180 138 -47 23 -121 51
-164 62 -103 26 -270 26 -375 0z"></path>
    </g>
  </symbol>

  <symbol version="1.0" xmlns="http://www.w3.org/2000/svg" preserveAspectRatio="xMidYMid meet" viewBox="0 0 512.000000 512.000000" id="icon-youtube">
    <g transform="translate(0.000000,512.000000) scale(0.100000,-0.100000)" stroke="none">
      <path d="M1030 5099 c-307 -65 -572 -228 -754 -464 -132 -171 -191 -291 -248
-505 l-23 -85 -2 -1452 c-3 -1439 -3 -1454 17 -1555 54 -266 166 -474 355
-663 189 -189 397 -301 663 -355 101 -20 116 -20 1555 -17 l1452 2 85 23 c169
45 286 96 410 178 237 157 421 391 510 649 70 201 65 81 65 1705 0 1624 5
1504 -65 1705 -89 258 -273 492 -510 649 -124 82 -241 133 -410 178 l-85 23
-1460 2 c-1426 2 -1462 1 -1555 -18z m2485 -1394 c241 -16 282 -23 357 -61
123 -63 191 -163 227 -339 58 -283 55 -1267 -5 -1505 -53 -212 -141 -312 -312
-355 -145 -37 -1013 -62 -1607 -46 -700 19 -833 32 -945 92 -110 59 -173 157
-209 325 -38 178 -53 779 -30 1204 21 380 87 537 262 627 87 44 207 56 767 77
222 9 1290 -5 1495 -19z"></path>
      <path d="M2230 2601 c0 -259 3 -471 8 -471 8 0 844 448 854 458 4 4 -169 104
-385 222 -215 118 -411 225 -434 238 l-43 24 0 -471z"></path>
    </g>
  </symbol>

  <symbol xmlns="http://www.w3.org/2000/svg" viewBox="0 0 24 24" id="close">
    <path d="M16.3956 7.75734C16.7862 8.14786 16.7862 8.78103 16.3956 9.17155L13.4142 12.153L16.0896 14.8284C16.4802 15.2189 16.4802 15.8521 16.0896 16.2426C15.6991 16.6331 15.0659 16.6331 14.6754 16.2426L12 13.5672L9.32458 16.2426C8.93405 16.6331 8.30089 16.6331 7.91036 16.2426C7.51984 15.8521 7.51984 15.2189 7.91036 14.8284L10.5858 12.153L7.60436 9.17155C7.21383 8.78103 7.21383 8.14786 7.60436 7.75734C7.99488 7.36681 8.62805 7.36681 9.01857 7.75734L12 10.7388L14.9814 7.75734C15.372 7.36681 16.0051 7.36681 16.3956 7.75734Z"></path>
    <path fill-rule="evenodd" clip-rule="evenodd" d="M4 1C2.34315 1 1 2.34315 1 4V20C1 21.6569 2.34315 23 4 23H20C21.6569 23 23 21.6569 23 20V4C23 2.34315 21.6569 1 20 1H4ZM20 3H4C3.44772 3 3 3.44772 3 4V20C3 20.5523 3.44772 21 4 21H20C20.5523 21 21 20.5523 21 20V4C21 3.44772 20.5523 3 20 3Z"></path>
  </symbol>

<symbol id="icon-up" xmlns="http://www.w3.org/2000/svg" xmlns:xlink="http://www.w3.org/1999/xlink" x="0px" y="0px" xml:space="preserve" viewBox="0 0 384.97 384.97">
    <g>
      <g id="Arrow_Drop_Up_Square">
        <path d="M360.909,0H24.061C10.767,0,0,10.767,0,24.061v336.848c0,13.293,10.767,24.061,24.061,24.061h336.848
			c13.281,0,24.061-10.767,24.061-24.061V24.061C384.97,10.767,374.191,0,360.909,0z M360.909,360.909H24.061V24.061h336.848
			V360.909z"></path>
        <path id="Arrow_Drop_Down_4_" d="M59.935,240.666c0,6.785,5.883,12.151,12.56,11.97h239.92
			c10.671,0.289,16.602-12.872,8.927-20.476l-120.291-119.1c-4.74-4.692-12.403-4.523-17.191,0L63.664,232.065
			C61.379,234.242,59.935,237.274,59.935,240.666z M192.461,138.589l91.021,90.119H101.427L192.461,138.589z"></path>
      </g>
      <g></g>
      <g></g>
      <g></g>
      <g></g>
      <g></g>
      <g></g>
    </g>
    <g></g>
    <g></g>
    <g></g>
    <g></g>
    <g></g>
    <g></g>
    <g></g>
    <g></g>
    <g></g>
    <g></g>
    <g></g>
    <g></g>
    <g></g>
    <g></g>
    <g></g>
  </symbol>
</svg>